<?xml version="1.0" encoding="UTF-8" standalone="no"?>
<svg
   xmlns:dc="http://purl.org/dc/elements/1.1/"
   xmlns:cc="http://creativecommons.org/ns#"
   xmlns:rdf="http://www.w3.org/1999/02/22-rdf-syntax-ns#"
   xmlns:svg="http://www.w3.org/2000/svg"
   xmlns="http://www.w3.org/2000/svg"
   xmlns:sodipodi="http://sodipodi.sourceforge.net/DTD/sodipodi-0.dtd"
   xmlns:inkscape="http://www.inkscape.org/namespaces/inkscape"
   id="Layer_1"
   data-name="Layer 1"
   viewBox="0 0 256 256"
   version="1.1"
   sodipodi:docname="Rosi_Logo.svg"
   inkscape:version="0.92.1 r15371">
  <metadata
     id="metadata13">
    <rdf:RDF>
      <cc:Work
         rdf:about="">
        <dc:format>image/svg+xml</dc:format>
        <dc:type
           rdf:resource="http://purl.org/dc/dcmitype/StillImage" />
      </cc:Work>
    </rdf:RDF>
  </metadata>
  <sodipodi:namedview
     pagecolor="#ffffff"
     bordercolor="#666666"
     borderopacity="1"
     objecttolerance="10"
     gridtolerance="10"
     guidetolerance="10"
     inkscape:pageopacity="0"
     inkscape:pageshadow="2"
     inkscape:window-width="1918"
     inkscape:window-height="1004"
     id="namedview11"
     showgrid="false"
     inkscape:zoom="0.921875"
     inkscape:cx="-46.101695"
     inkscape:cy="128"
     inkscape:window-x="0"
     inkscape:window-y="24"
     inkscape:window-maximized="1"
     inkscape:current-layer="Layer_1" />
  <defs
     id="defs4">
    <style
       id="style2">.cls-1{fill:#e6332a;}</style>
  </defs>
  <title
     id="title6">Rosi_Logo</title>
  <g
     id="g4494"
     inkscape:export-xdpi="93.354431"
     inkscape:export-ydpi="93.354431">
    <ellipse
       ry="128.54237"
       rx="128"
       cy="128.54237"
       cx="127.99998"
       id="path4490"
       style="opacity:1;fill:#333333;fill-opacity:0.97395833;stroke:none;stroke-width:0.99370402" />
    <path
       style="fill:#e6332a"
       inkscape:connector-curvature="0"
       id="path8"
       d="m 77.17,45.3 h 51.36 c 17.53,0 31.7,6.62 41.21,16 9.59,9.6 15.26,18.34 15.26,35.76 v 4.1 q 0,15.91 -10,30 c -5.53,7.74 -9.91,11 -18.85,14.55 l 36.62,57 H 154.12 L 108.9,133.1 v 69.62 H 77.26 Z M 152.36,98 a 21.25,21.25 0 0 0 -6.25,-15.14 c -4.1,-4 -11.9,-6.25 -19.53,-6.25 h -17.77 v 43.46 H 121 v 0.1 h 10.55 C 143.09,120.21 152.36,110 152.36,98 Z"
       class="cls-1" />
  </g>
</svg>
